<svg xmlns="http://www.w3.org/2000/svg" viewBox="0 0 540.37 566.01"><defs><style>.cls-1{fill:#fff;}.cls-2{fill:#fff;}</style></defs><path class="cls-1" d="M457.5,494.25S414,594.5,302,594.5c-110.25,0-162.63-94.62-162.63-128.45,0-7.77-1.75-180.16-.81-210.68.1-3.08,0-5.16.13-5,3,2.47,69.81,56.17,170.53,56.95,75.75.59,155.07-56.92,154.49-56.46a4,4,0,0,1,0-.49c-.16,2.47-.19,101.42-.19,101.42,20.72-13.41,90.31-55.67,89.39-57.65C517.5,218,421.5,140,302,140c-156.8,0-283.9,127.1-283.9,283.9S145,706,301.75,706c170.75,0,256.72-144.06,256.72-167" transform="translate(-18.1 -139.99)"/><path class="cls-2" d="M138.55,255.88" transform="translate(-18.1 -139.99)"/></svg>
