
<svg id="Слой_1" data-name="Слой 1" xmlns="http://www.w3.org/2000/svg" viewBox="0 0 596.28 596.28"><defs><style>.cls-1{fill:#15191c;}.cls-1,.cls-3{stroke:#201600;stroke-miterlimit:10;}.cls-2,.cls-3{fill:#fff;}</style></defs><title>no-logo</title><path class="cls-2" d="M406.62,343.53s-28,64.57-100.15,64.57c-71,0-104.73-60.94-104.73-82.73,0-5-1.13-116-.53-135.69.07-2,0-3.32.08-3.24,2,1.59,45,36.17,109.83,36.68,48.79.37,99.88-36.66,99.51-36.37a1.62,1.62,0,0,1,0-.31c-.1,1.59-.12,65.32-.12,65.32,13.34-8.64,58.17-35.86,57.57-37.14-22.79-49-84.62-99.25-161.59-99.25-101,0-182.84,81.86-182.84,182.85s81.7,181.69,182.68,181.69c110,0,165.34-92.78,165.34-107.58" transform="translate(0.5 0.5)"/><path class="cls-3" d="M201.2,190" transform="translate(0.5 0.5)"/></svg>
