<svg id="Слой_1" data-name="Слой 1" xmlns="http://www.w3.org/2000/svg" viewBox="0 0 180.99 184.45"><defs><style>.cls-1{fill:#fff;}.cls-2{fill:rgba(255, 255, 255, .2);stroke:#000;stroke-miterlimit:10;stroke-width:0px;}</style></defs><title>default-avatar</title><path class="cls-1" d="M-175-19.22" transform="translate(-43.3 -119.83)"/><path class="cls-2" d="M45.8,301.27c0-21.27,21.21-71,50.67-78.67,8.73-2.28,25.92-7.37,22-7.37-15.23,0-33.23-23.67-32.64-47.83.8-32.53,21.06-45.06,50.93-45.07,33.6,0,46.8,24.41,46.75,46.18,0,20.3-18.88,46.69-36.08,47.29-3,.1,9.55,2,20.8,4.93,12.09,3.15,50.67,31.2,53.45,80.77,0,0-36.12.69-87.58-.07C120.66,301.23,45.8,301.27,45.8,301.27Z" transform="translate(-43.3 -119.83)"/></svg>
