<svg data-name="Слой 1" xmlns="http://www.w3.org/2000/svg" viewBox="0 0 253.53 187.68"><defs><style>.cls-1{fill:none;stroke:rgba(255, 255, 255, .2);stroke-miterlimit:10;stroke-width:5px;}.cls-2{fill:rgba(255, 255, 255, .2);}</style></defs><rect class="cls-1" x="2.5" y="2.5" width="248.53" height="170.81" rx="31.6"/><rect class="cls-1" x="20.7" y="21.31" width="142.47" height="132.27" rx="25.37"/><line class="cls-1" x1="180.37" y1="21.31" x2="226.5" y2="21.31"/><line class="cls-1" x1="180.37" y1="33.28" x2="231.37" y2="33.28"/><line class="cls-1" x1="180.37" y1="45.26" x2="231.37" y2="45.26"/><line class="cls-1" x1="180.37" y1="57.51" x2="231.37" y2="57.51"/><line class="cls-1" x1="180.37" y1="69.48" x2="231.37" y2="69.48"/><line class="cls-1" x1="180.37" y1="81.46" x2="231.37" y2="81.46"/><line class="cls-1" x1="180.37" y1="93.43" x2="231.37" y2="93.43"/><line class="cls-1" x1="180.37" y1="105.4" x2="231.37" y2="105.4"/><line class="cls-1" x1="180.37" y1="117.38" x2="231.37" y2="117.38"/><line class="cls-1" x1="180.37" y1="129.63" x2="231.37" y2="129.63"/><line class="cls-1" x1="180.37" y1="141.6" x2="231.37" y2="141.6"/><line class="cls-1" x1="180.37" y1="153.58" x2="231.37" y2="153.58"/><line class="cls-1" x1="30.62" y1="185.18" x2="224.12" y2="185.18"/><path class="cls-2" d="M128,244.09s-5.84,13.48-20.89,13.48c-14.81,0-21.85-12.72-21.85-17.26,0-1-.23-24.21-.11-28.31,0-.22,0-.45,0-.67A39.08,39.08,0,0,0,108,219c10.18.08,20.83-7.65,20.76-7.59v-.06c0,.33,0,13.62,0,13.62,2.79-1.8,12.14-7.48,12-7.74-4.75-10.23-17.65-20.7-33.7-20.7a38.14,38.14,0,0,0-38.15,38.14h0A37.91,37.91,0,0,0,107,272.55c22.94,0,34.49-19.36,34.49-22.44" transform="translate(-16.63 -146.62)"/><path class="cls-2" d="M-175-19.22" transform="translate(-16.63 -146.62)"/></svg>
